<svg width="21" height="20" viewBox="0 0 21 20" fill="none" xmlns="http://www.w3.org/2000/svg">
<path fill-rule="evenodd" clip-rule="evenodd" d="M10.1218 1.83961L13.2654 0.5L14.9889 3.39219L18.332 4.12865L18.0022 7.46629L20.2667 9.99919L18.0104 12.5093L18.332 15.8714L15.0087 16.5948L13.2654 19.5L10.1449 18.1588L7.0013 19.5L5.27778 16.6078L1.93464 15.8714L2.2645 12.5321L0 9.99919L2.25625 7.48905L1.93464 4.12865L5.25799 3.40519L7.0013 0.5L10.1218 1.83961Z" fill="#B4B4B4"/>
<path d="M6.62596 10.9908C5.72085 10.006 7.11058 8.53849 8.11709 9.46754C8.47198 9.79481 8.98791 10.2729 9.34578 10.5972L12.1044 7.16906C13.0647 6.16461 14.5811 7.63961 13.6328 8.6501L10.1674 12.8308C9.97786 13.0333 9.71796 13.1534 9.44255 13.1658C9.16713 13.1781 8.89773 13.0818 8.69118 12.8972C8.10367 12.3316 7.2418 11.5187 6.62596 10.9908Z" fill="white"/>
</svg>
