<svg width="16" height="16" viewBox="0 0 16 16" fill="none" xmlns="http://www.w3.org/2000/svg">
<g clip-path="url(#clip0_4411_13766)">
<path d="M2.66667 1.3335H13.3333C13.5101 1.3335 13.6797 1.40373 13.8047 1.52876C13.9298 1.65378 14 1.82335 14 2.00016V14.8508C14.0001 14.9065 13.9862 14.9612 13.9597 15.0101C13.9332 15.059 13.8948 15.1005 13.8482 15.1308C13.8015 15.161 13.748 15.1792 13.6926 15.1835C13.6371 15.1878 13.5814 15.1782 13.5307 15.1555L8 12.6868L2.46933 15.1548C2.4186 15.1775 2.36301 15.1871 2.30761 15.1828C2.25221 15.1786 2.19876 15.1605 2.15212 15.1303C2.10548 15.1001 2.06713 15.0587 2.04057 15.0099C2.014 14.9611 2.00005 14.9064 2 14.8508V2.00016C2 1.82335 2.07024 1.65378 2.19526 1.52876C2.32029 1.40373 2.48986 1.3335 2.66667 1.3335ZM12.6667 13.3102V2.66683H3.33333V13.3102L8 11.2275L12.6667 13.3102ZM8 9.00016L6.04067 10.0302L6.41467 7.84883L4.83 6.3035L7.02067 5.98483L8 4.00016L8.98 5.98483L11.17 6.3035L9.58533 7.84883L9.95867 10.0302L8 9.00016Z" fill="#202020"/>
</g>
<defs>
<clipPath id="clip0_4411_13766">
<rect width="16" height="16" fill="white"/>
</clipPath>
</defs>
</svg>
