<svg width="23" height="22" viewBox="0 0 23 22" fill="none" xmlns="http://www.w3.org/2000/svg">
<path d="M19.438 6.9999H20.5C21.0304 6.9999 21.5391 7.21061 21.9142 7.58569C22.2893 7.96076 22.5 8.46947 22.5 8.9999V12.9999C22.5 13.5303 22.2893 14.039 21.9142 14.4141C21.5391 14.7892 21.0304 14.9999 20.5 14.9999H19.438C19.1942 16.9332 18.2533 18.7111 16.7917 19.9999C15.3302 21.2887 13.4486 21.9999 11.5 21.9999V19.9999C13.0913 19.9999 14.6174 19.3678 15.7426 18.2425C16.8679 17.1173 17.5 15.5912 17.5 13.9999V7.9999C17.5 6.4086 16.8679 4.88248 15.7426 3.75726C14.6174 2.63204 13.0913 1.9999 11.5 1.9999C9.9087 1.9999 8.38258 2.63204 7.25736 3.75726C6.13214 4.88248 5.5 6.4086 5.5 7.9999V14.9999H2.5C1.96957 14.9999 1.46086 14.7892 1.08579 14.4141C0.710714 14.039 0.5 13.5303 0.5 12.9999V8.9999C0.5 8.46947 0.710714 7.96076 1.08579 7.58569C1.46086 7.21061 1.96957 6.9999 2.5 6.9999H3.562C3.80603 5.0668 4.74708 3.28917 6.20857 2.00058C7.67007 0.711979 9.55155 0.000976562 11.5 0.000976562C13.4484 0.000976562 15.3299 0.711979 16.7914 2.00058C18.2529 3.28917 19.194 5.0668 19.438 6.9999ZM2.5 8.9999V12.9999H3.5V8.9999H2.5ZM19.5 8.9999V12.9999H20.5V8.9999H19.5ZM7.26 14.7849L8.32 13.0889C9.27308 13.6859 10.3754 14.0017 11.5 13.9999C12.6246 14.0017 13.7269 13.6859 14.68 13.0889L15.74 14.7849C14.4693 15.581 12.9995 16.0022 11.5 15.9999C10.0005 16.0022 8.53074 15.581 7.26 14.7849Z" fill="#727272"/>
</svg>
