<svg width="25" height="24" viewBox="0 0 25 24" fill="none" xmlns="http://www.w3.org/2000/svg">
<g clip-path="url(#clip0_4246_2372)">
<path d="M20.7578 7.9999H21.8198C22.3503 7.9999 22.859 8.21061 23.234 8.58569C23.6091 8.96076 23.8198 9.46947 23.8198 9.9999V13.9999C23.8198 14.5303 23.6091 15.039 23.234 15.4141C22.859 15.7892 22.3503 15.9999 21.8198 15.9999H20.7578C20.514 17.9332 19.5731 19.7111 18.1116 20.9999C16.6501 22.2887 14.7684 22.9999 12.8198 22.9999V20.9999C14.4111 20.9999 15.9372 20.3678 17.0625 19.2425C18.1877 18.1173 18.8198 16.5912 18.8198 14.9999V8.9999C18.8198 7.4086 18.1877 5.88248 17.0625 4.75726C15.9372 3.63204 14.4111 2.9999 12.8198 2.9999C11.2285 2.9999 9.7024 3.63204 8.57718 4.75726C7.45197 5.88248 6.81982 7.4086 6.81982 8.9999V15.9999H3.81982C3.28939 15.9999 2.78068 15.7892 2.40561 15.4141C2.03054 15.039 1.81982 14.5303 1.81982 13.9999V9.9999C1.81982 9.46947 2.03054 8.96076 2.40561 8.58569C2.78068 8.21061 3.28939 7.9999 3.81982 7.9999H4.88182C5.12585 6.0668 6.0669 4.28917 7.5284 3.00058C8.98989 1.71198 10.8714 1.00098 12.8198 1.00098C14.7683 1.00098 16.6498 1.71198 18.1112 3.00058C19.5727 4.28917 20.5138 6.0668 20.7578 7.9999ZM3.81982 9.9999V13.9999H4.81982V9.9999H3.81982ZM20.8198 9.9999V13.9999H21.8198V9.9999H20.8198ZM8.57982 15.7849L9.63982 14.0889C10.5929 14.6859 11.6952 15.0017 12.8198 14.9999C13.9445 15.0017 15.0467 14.6859 15.9998 14.0889L17.0598 15.7849C15.7891 16.581 14.3194 17.0022 12.8198 16.9999C11.3203 17.0022 9.85056 16.581 8.57982 15.7849Z" fill="white"/>
</g>
<defs>
<clipPath id="clip0_4246_2372">
<rect width="24" height="24" fill="white" transform="translate(0.819824)"/>
</clipPath>
</defs>
</svg>
