<svg width="20" height="19" viewBox="0 0 20 19" fill="none" xmlns="http://www.w3.org/2000/svg">
<path d="M0 1.493C0.00183004 1.23038 0.1069 0.979017 0.292513 0.793218C0.478126 0.607418 0.72938 0.502095 0.992 0.5H19.008C19.556 0.5 20 0.945 20 1.493V17.507C19.9982 17.7696 19.8931 18.021 19.7075 18.2068C19.5219 18.3926 19.2706 18.4979 19.008 18.5H0.992C0.728813 18.4997 0.476497 18.395 0.290489 18.2088C0.104482 18.0226 -1.33455e-07 17.7702 0 17.507V1.493ZM9 2.5H2V16.5H9V2.5ZM11 2.5V16.5H18V2.5H11ZM12 4.5H17V6.5H12V4.5ZM12 7.5H17V9.5H12V7.5Z" fill="white"/>
</svg>
