<svg width="22" height="19" viewBox="0 0 22 19" fill="none" xmlns="http://www.w3.org/2000/svg">
<path fill-rule="evenodd" clip-rule="evenodd" d="M7.95591 0.427026C5.64341 0.789526 3.50591 1.46453 1.59341 2.45203C1.06841 2.70203 0.543406 3.03953 0.380906 3.20203C-0.0565939 3.63953 -0.131594 4.53953 0.230906 5.10203C0.480906 5.51453 1.09341 5.86453 1.55591 5.86453C1.81841 5.86453 2.58091 5.48953 3.00591 5.26453C5.73091 3.91453 7.94341 3.38953 10.8684 3.38953C13.7934 3.38953 16.3434 3.98953 19.0309 5.38953C19.7059 5.75203 20.0434 5.90203 20.4684 5.80203C21.0309 5.68953 21.5809 5.21453 21.7434 4.70203C21.8184 4.46453 21.8184 4.25203 21.8184 4.17703L21.8434 4.05203L21.7934 3.93953C21.7934 3.28953 21.0809 2.83952 19.7809 2.22703C17.7559 1.25202 15.6309 0.627027 13.2559 0.302026C12.0059 0.164525 9.35591 0.189527 7.94341 0.402027M5.93091 7.97703C4.90591 8.31453 2.83091 9.26453 2.46841 9.67703C2.18091 9.97703 2.03091 10.3895 2.08091 10.877C2.11841 11.3395 2.33091 11.752 2.68091 12.0145C3.43091 12.527 3.88091 12.3645 5.06841 11.7895C6.75591 10.952 7.91841 10.6145 9.84341 10.4395C12.0684 10.2145 14.3809 10.6645 16.5434 11.7145C17.0809 11.9895 17.6184 12.227 17.7809 12.2895C18.1059 12.402 18.4934 12.3645 18.8434 12.177C19.2434 11.977 19.5559 11.6145 19.6809 11.227C19.7309 11.0645 19.7559 10.9145 19.7559 10.7645C19.7559 9.70203 18.4809 9.06453 17.2559 8.55203C13.6309 6.97703 9.70591 6.77703 5.93091 7.98953L5.93091 7.97703ZM4.14341 17.4145C4.14341 17.9145 4.26841 18.1395 4.56841 18.477C5.30591 19.2395 5.86841 19.077 7.06841 18.477C9.63091 17.202 12.1684 17.2145 14.8184 18.527C15.6059 18.9145 15.9434 19.0395 16.3559 18.9895C16.8559 18.8645 17.3309 18.4895 17.5184 18.027C17.5809 17.8895 17.6434 17.627 17.6434 17.402C17.6434 17.3395 17.6434 17.2895 17.6309 17.2395C17.5059 16.4895 17.0559 16.152 16.0184 15.627C14.1809 14.727 12.8434 14.402 10.8934 14.402C8.94341 14.402 7.46841 14.7395 5.78091 15.5645C4.71841 16.0645 4.13091 16.502 4.13091 17.402" fill="#3C1FAB"/>
</svg>
