<svg width="24" height="24" viewBox="0 0 24 24" fill="none" xmlns="http://www.w3.org/2000/svg">
<path d="M23.0728 11.0957L23.0728 11.0957L23.077 11.1018C23.4385 11.626 23.4455 12.3454 23.0712 12.9067L23.0712 12.9066L23.065 12.9163L22.2 14.2646C21.9779 14.5646 21.9534 14.9145 21.9534 15.1034V15.1139L21.9538 15.1244L22.0055 16.7279L22.0058 16.7359L22.0062 16.744C22.0435 17.3961 21.6872 18.0288 21.0972 18.3238L19.649 19.0479C19.368 19.1884 19.1626 19.3939 19.0221 19.6748L18.2979 21.1231C18.0018 21.7154 17.3937 22.0688 16.7193 22.0322C16.7186 22.0321 16.7178 22.0321 16.7171 22.032L15.0929 21.9289L15.0723 21.9276H15.0517C14.7762 21.9276 14.4799 22.0126 14.2518 22.1495L14.2373 22.1582L14.2233 22.1677L12.8808 23.0712C12.8805 23.0715 12.8801 23.0717 12.8797 23.072C12.5987 23.259 12.2848 23.35 11.9741 23.35C11.663 23.35 11.3488 23.2588 11.0675 23.0712L11.0675 23.0712L11.0626 23.068L9.73815 22.202C9.43756 21.978 9.08606 21.9534 8.89655 21.9534H8.87594L8.85536 21.9548L7.23016 22.058C7.22955 22.058 7.22893 22.058 7.22832 22.0581C6.57687 22.0945 5.94503 21.7383 5.65034 21.149L4.9262 19.7007L4.91504 19.6784L4.9022 19.657C4.79565 19.4794 4.61285 19.2306 4.29931 19.0738L2.85103 18.3497C2.25883 18.0536 1.90541 17.4456 1.94197 16.7712C1.94202 16.7704 1.94206 16.7696 1.9421 16.7688L2.04525 15.1446L2.04655 15.1241V15.1034C2.04655 14.8457 2.00702 14.6019 1.89055 14.3302L1.86647 14.274L1.83234 14.2233L0.927163 12.8784L0.927198 12.8784L0.923019 12.8724C0.561525 12.3482 0.554548 11.6288 0.928764 11.0675L0.928785 11.0675L0.931961 11.0626L1.79796 9.73813C2.02198 9.43755 2.04655 9.08606 2.04655 8.89655V8.87594L2.04525 8.85536L1.94204 7.23016C1.94201 7.22953 1.94197 7.22891 1.94194 7.22828C1.90547 6.57685 2.26167 5.94503 2.85103 5.65034L4.29931 4.9262C4.58027 4.78572 4.78572 4.58027 4.9262 4.29931L5.65034 2.85103C5.94644 2.25883 6.55443 1.90541 7.22882 1.94197L8.85536 2.04525L8.87594 2.04655H8.89655C9.15426 2.04655 9.39807 2.00702 9.66984 1.89055L9.72603 1.86647L9.77674 1.83234L11.1192 0.928764C11.1195 0.928527 11.1199 0.928291 11.1202 0.928055C11.6776 0.557079 12.3754 0.557315 12.9325 0.928764L12.9325 0.928785L12.9374 0.931961L14.2619 1.79796C14.5625 2.02198 14.9139 2.04655 15.1034 2.04655H15.1241L15.1446 2.04525L16.7698 1.94204C16.7705 1.94201 16.7711 1.94197 16.7717 1.94194C17.4232 1.90547 18.055 2.26167 18.3497 2.85103L19.0738 4.29931C19.2143 4.58027 19.4197 4.78572 19.7007 4.9262L21.149 5.65034C21.7412 5.94647 22.0946 6.55453 22.058 7.22899C22.058 7.22972 22.0579 7.23045 22.0579 7.23119L21.9548 8.85536L21.9534 8.87594V8.89655C21.9534 9.14561 21.9901 9.40778 22.1255 9.67862L22.1443 9.71611L22.1677 9.75088L23.0728 11.0957ZM6.05822 15.9105L6.05762 15.9111C5.50823 16.4605 5.47539 17.3727 6.06766 17.9265C6.34388 18.1973 6.7115 18.3397 7.06034 18.3397C7.41343 18.3397 7.78576 18.1938 8.06307 17.9165L11.6021 14.3775C11.5054 14.6979 11.4534 15.0371 11.4534 15.3879C11.4534 17.3245 13.0376 18.9086 14.9741 18.9086C16.9107 18.9086 18.4948 17.3245 18.4948 15.3879C18.4948 13.4255 16.9366 11.8672 14.9741 11.8672C14.6233 11.8672 14.2841 11.9192 13.9637 12.0159L17.908 8.07155C18.4948 7.52136 18.4629 6.62454 17.9619 6.07802L17.9524 6.06761L17.9424 6.05762C17.3936 5.50882 16.4827 5.47546 15.9288 6.06575L12.4125 9.57283C12.4998 9.26714 12.5466 8.94481 12.5466 8.61207C12.5466 6.6755 10.9624 5.09138 9.02586 5.09138C7.08929 5.09138 5.50517 6.6755 5.50517 8.61207C5.50517 10.5745 7.06343 12.1328 9.02586 12.1328C9.35537 12.1328 9.67468 12.0869 9.97772 12.0012L6.05822 15.9105Z" stroke="#727272" stroke-width="1.3"/>
</svg>
