<svg width="24" height="24" viewBox="0 0 24 24" fill="none" xmlns="http://www.w3.org/2000/svg">
<g clip-path="url(#clip0_3318_42026)">
<path d="M13.1201 17.0232L8.92108 14.7332C8.37288 15.3193 7.66107 15.7269 6.87816 15.9031C6.09524 16.0793 5.27743 16.0159 4.531 15.7212C3.78458 15.4266 3.14404 14.9142 2.69265 14.2506C2.24126 13.5871 1.99988 12.8032 1.99988 12.0007C1.99988 11.1982 2.24126 10.4143 2.69265 9.75076C3.14404 9.08725 3.78458 8.57486 4.531 8.28016C5.27743 7.98547 6.09524 7.92211 6.87816 8.09832C7.66107 8.27452 8.37288 8.68214 8.92108 9.2682L13.1211 6.9782C12.8826 6.03428 12.9966 5.03579 13.4417 4.16991C13.8868 3.30402 14.6324 2.63018 15.5388 2.2747C16.4451 1.91923 17.45 1.90651 18.3651 2.23894C19.2801 2.57137 20.0425 3.22612 20.5094 4.08046C20.9762 4.93481 21.1155 5.93009 20.901 6.87975C20.6865 7.82941 20.133 8.66824 19.3443 9.23901C18.5556 9.80979 17.5858 10.0733 16.6167 9.9802C15.6476 9.88708 14.7457 9.44371 14.0801 8.7332L9.88008 11.0232C10.0413 11.6646 10.0413 12.3358 9.88008 12.9772L14.0791 15.2672C14.7447 14.5567 15.6466 14.1133 16.6157 14.0202C17.5848 13.9271 18.5546 14.1906 19.3433 14.7614C20.132 15.3322 20.6855 16.171 20.9 17.1207C21.1145 18.0703 20.9752 19.0656 20.5084 19.9199C20.0415 20.7743 19.2791 21.429 18.3641 21.7615C17.449 22.0939 16.4441 22.0812 15.5378 21.7257C14.6314 21.3702 13.8858 20.6964 13.4407 19.8305C12.9956 18.9646 12.8816 17.9661 13.1201 17.0222V17.0232ZM6.00008 14.0002C6.53052 14.0002 7.03922 13.7895 7.4143 13.4144C7.78937 13.0393 8.00008 12.5306 8.00008 12.0002C8.00008 11.4698 7.78937 10.9611 7.4143 10.586C7.03922 10.2109 6.53052 10.0002 6.00008 10.0002C5.46965 10.0002 4.96094 10.2109 4.58587 10.586C4.2108 10.9611 4.00008 11.4698 4.00008 12.0002C4.00008 12.5306 4.2108 13.0393 4.58587 13.4144C4.96094 13.7895 5.46965 14.0002 6.00008 14.0002ZM17.0001 8.0002C17.5305 8.0002 18.0392 7.78949 18.4143 7.41442C18.7894 7.03934 19.0001 6.53064 19.0001 6.0002C19.0001 5.46977 18.7894 4.96106 18.4143 4.58599C18.0392 4.21092 17.5305 4.0002 17.0001 4.0002C16.4697 4.0002 15.9609 4.21092 15.5859 4.58599C15.2108 4.96106 15.0001 5.46977 15.0001 6.0002C15.0001 6.53064 15.2108 7.03934 15.5859 7.41442C15.9609 7.78949 16.4697 8.0002 17.0001 8.0002ZM17.0001 20.0002C17.5305 20.0002 18.0392 19.7895 18.4143 19.4144C18.7894 19.0393 19.0001 18.5306 19.0001 18.0002C19.0001 17.4698 18.7894 16.9611 18.4143 16.586C18.0392 16.2109 17.5305 16.0002 17.0001 16.0002C16.4697 16.0002 15.9609 16.2109 15.5859 16.586C15.2108 16.9611 15.0001 17.4698 15.0001 18.0002C15.0001 18.5306 15.2108 19.0393 15.5859 19.4144C15.9609 19.7895 16.4697 20.0002 17.0001 20.0002Z" fill="#727272"/>
</g>
<defs>
<clipPath id="clip0_3318_42026">
<rect width="24" height="24" fill="white"/>
</clipPath>
</defs>
</svg>
