<svg width="25" height="26" viewBox="0 0 25 26" fill="none" xmlns="http://www.w3.org/2000/svg">
<path d="M14.4 19.2789L9.15126 16.4164C8.46601 17.149 7.57624 17.6585 6.5976 17.8787C5.61896 18.099 4.5967 18.0198 3.66366 17.6514C2.73063 17.2831 1.92996 16.6426 1.36572 15.8132C0.801482 14.9838 0.499756 14.0039 0.499756 13.0008C0.499756 11.9976 0.801482 11.0177 1.36572 10.1883C1.92996 9.35894 2.73063 8.71845 3.66366 8.35008C4.5967 7.98172 5.61896 7.90252 6.5976 8.12277C7.57624 8.34303 8.46601 8.85255 9.15126 9.58513L14.4013 6.72263C14.1032 5.54273 14.2457 4.29462 14.8021 3.21226C15.3584 2.1299 16.2904 1.28761 17.4233 0.843259C18.5563 0.39891 19.8124 0.383013 20.9562 0.79855C22.1001 1.21409 23.0531 2.03253 23.6366 3.10046C24.2202 4.16839 24.3942 5.41249 24.1261 6.59956C23.858 7.78664 23.1662 8.83518 22.1803 9.54864C21.1944 10.2621 19.9822 10.5915 18.7708 10.4751C17.5594 10.3587 16.432 9.80452 15.6 8.91638L10.35 11.7789C10.5515 12.5806 10.5515 13.4197 10.35 14.2214L15.5988 17.0839C16.4308 16.1957 17.5581 15.6415 18.7695 15.5251C19.9809 15.4087 21.1932 15.7382 22.1791 16.4516C23.1649 17.1651 23.8568 18.2136 24.1249 19.4007C24.393 20.5878 24.219 21.8319 23.6354 22.8998C23.0518 23.9677 22.0988 24.7862 20.955 25.2017C19.8112 25.6173 18.555 25.6014 17.4221 25.157C16.2891 24.7127 15.3572 23.8704 14.8008 22.788C14.2445 21.7056 14.102 20.4575 14.4 19.2776V19.2789ZM5.50001 15.5001C6.16305 15.5001 6.79894 15.2367 7.26778 14.7679C7.73662 14.2991 8.00001 13.6632 8.00001 13.0001C8.00001 12.3371 7.73662 11.7012 7.26778 11.2324C6.79894 10.7635 6.16305 10.5001 5.50001 10.5001C4.83697 10.5001 4.20109 10.7635 3.73225 11.2324C3.26341 11.7012 3.00001 12.3371 3.00001 13.0001C3.00001 13.6632 3.26341 14.2991 3.73225 14.7679C4.20109 15.2367 4.83697 15.5001 5.50001 15.5001ZM19.25 8.00013C19.9131 8.00013 20.5489 7.73674 21.0178 7.2679C21.4866 6.79906 21.75 6.16317 21.75 5.50013C21.75 4.83709 21.4866 4.20121 21.0178 3.73237C20.5489 3.26352 19.9131 3.00013 19.25 3.00013C18.587 3.00013 17.9511 3.26352 17.4822 3.73237C17.0134 4.20121 16.75 4.83709 16.75 5.50013C16.75 6.16317 17.0134 6.79906 17.4822 7.2679C17.9511 7.73674 18.587 8.00013 19.25 8.00013ZM19.25 23.0001C19.9131 23.0001 20.5489 22.7367 21.0178 22.2679C21.4866 21.7991 21.75 21.1632 21.75 20.5001C21.75 19.8371 21.4866 19.2012 21.0178 18.7324C20.5489 18.2635 19.9131 18.0001 19.25 18.0001C18.587 18.0001 17.9511 18.2635 17.4822 18.7324C17.0134 19.2012 16.75 19.8371 16.75 20.5001C16.75 21.1632 17.0134 21.7991 17.4822 22.2679C17.9511 22.7367 18.587 23.0001 19.25 23.0001Z" fill="#3C1FAB"/>
</svg>
