<svg width="25" height="24" viewBox="0 0 25 24" fill="none" xmlns="http://www.w3.org/2000/svg">
<path d="M0.5 12C0.5 5.37258 5.87258 0 12.5 0C19.1274 0 24.5 5.37258 24.5 12C24.5 18.6274 19.1274 24 12.5 24C5.87258 24 0.5 18.6274 0.5 12Z" fill="#202020"/>
<path d="M11.3738 10.725V10.2579C11.2137 10.2365 11.051 10.2231 10.883 10.2231C8.87977 10.2205 7.25 11.8516 7.25 13.8592C7.25 15.0899 7.8635 16.1791 8.80242 16.8385C8.19692 16.1898 7.82615 15.3168 7.82615 14.3611C7.82615 12.3829 9.41058 10.7704 11.3738 10.725Z" fill="#25F4EE"/>
<path d="M11.4615 16.0218C12.3551 16.0218 13.086 15.309 13.118 14.4227L13.1207 6.50189H14.5664C14.537 6.33904 14.521 6.17086 14.521 6H12.5472L12.5445 13.9208C12.5125 14.8071 11.7816 15.5199 10.8881 15.5199C10.6107 15.5199 10.3493 15.4505 10.1172 15.3277C10.4159 15.7468 10.9067 16.0218 11.4615 16.0218Z" fill="#25F4EE"/>
<path d="M17.2689 9.19003V8.74956C16.7167 8.74956 16.2046 8.58671 15.7725 8.30371C16.1566 8.74422 16.6767 9.06459 17.2689 9.19003Z" fill="#25F4EE"/>
<path d="M15.7723 8.30394C15.3508 7.82075 15.0975 7.19072 15.0975 6.50195H14.5693C14.7053 7.25479 15.1535 7.90085 15.7723 8.30394Z" fill="#FE2C55"/>
<path d="M10.8857 12.1963C9.97076 12.1963 9.22656 12.9411 9.22656 13.8568C9.22656 14.4949 9.58932 15.0501 10.1175 15.3278C9.92008 15.0555 9.80272 14.7218 9.80272 14.3587C9.80272 13.443 10.5469 12.6982 11.4618 12.6982C11.6326 12.6982 11.7979 12.7276 11.9526 12.7756V10.7574C11.7926 10.736 11.6299 10.7227 11.4618 10.7227C11.4325 10.7227 11.4058 10.7253 11.3765 10.7253V12.2737C11.2191 12.2257 11.0564 12.1963 10.8857 12.1963Z" fill="#FE2C55"/>
<path d="M17.269 9.19043V10.7255C16.2447 10.7255 15.2952 10.3971 14.5216 9.84182V13.8596C14.5216 15.8645 12.8919 17.4983 10.886 17.4983C10.1124 17.4983 9.39223 17.2527 8.80273 16.8389C9.46691 17.5517 10.4138 18.0002 11.4621 18.0002C13.4653 18.0002 15.0978 16.3691 15.0978 14.3615V10.3437C15.8713 10.899 16.8209 11.2274 17.8452 11.2274V9.25186C17.6451 9.25186 17.4531 9.23048 17.269 9.19043Z" fill="#FE2C55"/>
<path d="M14.5213 13.8594V9.84164C15.2949 10.3969 16.2444 10.7253 17.2687 10.7253V9.19026C16.6766 9.06482 16.1564 8.74445 15.7723 8.30394C15.1535 7.90085 14.708 7.25479 14.5666 6.50195H13.1209L13.1183 14.4227C13.0863 15.309 12.3554 16.0219 11.4618 16.0219C10.907 16.0219 10.4189 15.7469 10.1148 15.3304C9.58664 15.0501 9.22388 14.4975 9.22388 13.8594C9.22388 12.9438 9.96808 12.1989 10.883 12.1989C11.0537 12.1989 11.2191 12.2283 11.3738 12.2764V10.728C9.4106 10.7707 7.82617 12.3831 7.82617 14.3613C7.82617 15.3171 8.19694 16.1874 8.80243 16.8388C9.39192 17.2526 10.1121 17.4982 10.8857 17.4982C12.8889 17.4982 14.5213 15.8643 14.5213 13.8594Z" fill="white"/>
</svg>
