<svg width="24" height="24" viewBox="0 0 24 24" fill="none" xmlns="http://www.w3.org/2000/svg">
<g clip-path="url(#clip0_3318_42038)">
<path d="M11.9999 14V16C10.4086 16 8.88246 16.6321 7.75724 17.7574C6.63202 18.8826 5.99988 20.4087 5.99988 22H3.99988C3.99988 19.8783 4.84273 17.8434 6.34302 16.3431C7.84331 14.8429 9.87815 14 11.9999 14ZM11.9999 13C8.68488 13 5.99988 10.315 5.99988 7C5.99988 3.685 8.68488 1 11.9999 1C15.3149 1 17.9999 3.685 17.9999 7C17.9999 10.315 15.3149 13 11.9999 13ZM11.9999 11C14.2099 11 15.9999 9.21 15.9999 7C15.9999 4.79 14.2099 3 11.9999 3C9.78988 3 7.99988 4.79 7.99988 7C7.99988 9.21 9.78988 11 11.9999 11ZM17.9999 21.5L15.0609 23.045L15.6219 19.773L13.2449 17.455L16.5309 16.977L17.9999 14L19.4699 16.977L22.7549 17.455L20.3779 19.773L20.9379 23.045L17.9999 21.5Z" fill="#727272"/>
</g>
<defs>
<clipPath id="clip0_3318_42038">
<rect width="24" height="24" fill="white"/>
</clipPath>
</defs>
</svg>
