<svg width="24" height="24" viewBox="0 0 24 24" fill="none" xmlns="http://www.w3.org/2000/svg">
<g clip-path="url(#clip0_3318_42002)">
<path d="M2.00012 22C2.00012 19.8783 2.84298 17.8434 4.34327 16.3431C5.84356 14.8429 7.87839 14 10.0001 14C12.1219 14 14.1567 14.8429 15.657 16.3431C17.1573 17.8434 18.0001 19.8783 18.0001 22H16.0001C16.0001 20.4087 15.368 18.8826 14.2428 17.7574C13.1175 16.6321 11.5914 16 10.0001 16C8.40882 16 6.8827 16.6321 5.75748 17.7574C4.63226 18.8826 4.00012 20.4087 4.00012 22H2.00012ZM10.0001 13C6.68512 13 4.00012 10.315 4.00012 7C4.00012 3.685 6.68512 1 10.0001 1C13.3151 1 16.0001 3.685 16.0001 7C16.0001 10.315 13.3151 13 10.0001 13ZM10.0001 11C12.2101 11 14.0001 9.21 14.0001 7C14.0001 4.79 12.2101 3 10.0001 3C7.79012 3 6.00012 4.79 6.00012 7C6.00012 9.21 7.79012 11 10.0001 11ZM18.2841 14.703C19.6895 15.3359 20.8821 16.3612 21.7187 17.6557C22.5553 18.9502 23.0003 20.4587 23.0001 22H21.0001C21.0004 20.844 20.6667 19.7125 20.0392 18.7416C19.4117 17.7707 18.5172 17.0017 17.4631 16.527L18.2831 14.703H18.2841ZM17.5961 3.413C18.6036 3.8283 19.4651 4.53354 20.0711 5.43923C20.6772 6.34492 21.0005 7.41024 21.0001 8.5C21.0005 9.87233 20.4878 11.1952 19.5627 12.2088C18.6375 13.2224 17.3668 13.8535 16.0001 13.978V11.965C16.7411 11.8589 17.4285 11.518 17.9614 10.9925C18.4944 10.4669 18.8448 9.78432 18.9613 9.04493C19.0777 8.30555 18.9541 7.5483 18.6085 6.88435C18.2629 6.22041 17.7136 5.68475 17.0411 5.356L17.5961 3.413Z" fill="#727272"/>
</g>
<defs>
<clipPath id="clip0_3318_42002">
<rect width="24" height="24" fill="white"/>
</clipPath>
</defs>
</svg>
